<?xml version="1.0" encoding="iso-8859-1"?>
<!-- Generator: Adobe Illustrator 16.0.0, SVG Export Plug-In . SVG Version: 6.00 Build 0)  -->
<!DOCTYPE svg PUBLIC "-//W3C//DTD SVG 1.1//EN" "http://www.w3.org/Graphics/SVG/1.1/DTD/svg11.dtd">
<svg version="1.1" id="Capa_1" xmlns="http://www.w3.org/2000/svg" xmlns:xlink="http://www.w3.org/1999/xlink" x="0px" y="0px"
	 width="535.812px" height="535.812px" viewBox="0 0 535.812 535.812" style="enable-background:new 0 0 535.812 535.812;"
	 xml:space="preserve">
<g>
	<g>
		<path d="M154.514,264.364c0,0,24.61,4.187,44.7,17.335c20.085,13.16,27.797,37.087,27.797,37.087h77.757
			c0,0,11.795-34.121,30.524-42.832c18.719-8.741,47.935-14.591,47.935-14.591s-1.261,0.42-0.455-37.448
			c25.958-24.038,39.363-54.001,39.363-89.61C422.136,60.131,353.065,0,267.893,0c-85.167,0-154.213,60.131-154.213,134.304
			c0,35.312,15.653,67.418,41.208,91.391C153.598,251.262,154.514,264.364,154.514,264.364z M330.751,121.81
			c23.623,0,42.762,22.35,42.762,49.896c0,27.564-19.15,49.891-42.762,49.891c-23.623,0-42.762-22.338-42.762-49.891
			C287.989,144.16,307.14,121.81,330.751,121.81z M265.791,228.229l4.735,6.09c11.857,15.256,16.891,35.819,17.112,36.684
			l-12.389,2.978c-0.047-0.158-3.206-12.985-10.066-24.814c-7.976,12.285-8.828,23.605-8.839,23.74l-12.71-0.853
			c0.07-0.823,1.518-20.277,17.089-38.038L265.791,228.229z M208.947,121.81c23.628,0,42.756,22.35,42.756,49.896
			c0,27.564-19.139,49.891-42.756,49.891s-42.761-22.338-42.761-49.891C166.174,144.16,185.318,121.81,208.947,121.81z"/>
		<path d="M430.158,418.204c-17.562-8.676-39.388-2.639-48.846,13.499c-2.358,4.04-3.736,8.36-4.169,12.669l-71.931-35.626
			l71.476-36.853c0.654,3.83,1.985,7.648,4.181,11.232c9.715,15.986,31.703,21.696,49.079,12.729
			c17.363-8.969,23.553-29.193,13.813-45.179c-7.182-11.794-20.995-17.96-34.739-16.804c8.232-10.182,9.738-24.265,2.557-36.047
			c-9.727-15.986-31.691-21.696-49.078-12.728c-17.353,8.968-23.564,29.193-13.814,45.191c3.06,4.997,7.311,8.99,12.227,11.863
			l-93.172,48.062l-94.06-46.58c4.858-2.941,9.056-7.006,12.004-12.051c9.423-16.148,2.849-36.257-14.678-44.956
			c-17.533-8.688-39.404-2.627-48.833,13.522c-6.959,11.887-5.19,25.945,3.24,35.988c-13.755-0.934-27.482,5.465-34.43,17.375
			c-9.435,16.139-2.854,36.27,14.673,44.945c17.545,8.676,39.41,2.64,48.833-13.51c2.143-3.62,3.41-7.45,3.958-11.304l72.165,35.731
			l-71.265,36.736c-0.514-4.285-1.95-8.57-4.391-12.588c-9.733-15.975-31.698-21.695-49.073-12.728
			c-17.387,8.968-23.582,29.192-13.82,45.179c7.158,11.794,20.996,17.971,34.733,16.826c-8.25,10.183-9.733,24.254-2.581,36.036
			c9.745,15.997,31.709,21.696,49.097,12.728c17.363-8.968,23.564-29.192,13.796-45.178c-2.75-4.555-6.562-8.256-10.953-11.047
			l91.928-47.409l92.816,45.949c-4.344,2.86-8.093,6.609-10.767,11.21c-9.435,16.149-2.872,36.27,14.678,44.957
			c17.562,8.688,39.399,2.627,48.846-13.511c6.972-11.899,5.185-25.958-3.246-36.001c13.743,0.936,27.464-5.465,34.424-17.375
			C454.26,447.023,447.674,426.891,430.158,418.204z"/>
	</g>
</g>
<g>
</g>
<g>
</g>
<g>
</g>
<g>
</g>
<g>
</g>
<g>
</g>
<g>
</g>
<g>
</g>
<g>
</g>
<g>
</g>
<g>
</g>
<g>
</g>
<g>
</g>
<g>
</g>
<g>
</g>
</svg>
